# xmcd
#
# Track frame offsets:
#	150
#	12354
#	24864
#	36694
#	54090
#	70752
#	87429
#	107321
#	118358
#	134918
#	152269
#	171538
#	191716
#	207104
#	229986
#	245735
#	260966
#	277653
#	293595
#	310482
#
# Disc length: 4349 seconds
#
# Revision: 1
# Processed by: cddbd v1.5PL3 Copyright (c) Steve Scherf et al.
# Submitted via: CDex 1.50Beta5
#
DISCID=2710fb14
DTITLE=小野リサ - Best 1997-2001 Limited Edition
DYEAR=2001
DGENRE=World
TTITLE0=RED BLOUSE
TTITLE1=MOONLIGHT SERENADE
TTITLE2=SO DANCO SAMBA
TTITLE3=I WISH YOU LOVE
TTITLE4=CHEGA DE SAUDADE
TTITLE5=星の散歩
TTITLE6=MOON RIVER
TTITLE7=FLOR DE YEMANJA
TTITLE8=PRETTY WORLD
TTITLE9=SMILE
TTITLE10=DREAM
TTITLE11=PALPITE INFELIZ
TTITLE12=IN THE MOOD - EDMUND
TTITLE13=Garota de Ipanema
TTITLE14=NON-STOP TO BRAZIL
TTITLE15=BLUE HAWAII
TTITLE16=PIKAKE
TTITLE17=ANGEL'S EYES
TTITLE18=AGUAS DE MARCO
TTITLE19=SAMBA DE UNA NOTA SO
EXTD=
EXTT0=
EXTT1=
EXTT2=
EXTT3=
EXTT4=
EXTT5=
EXTT6=
EXTT7=
EXTT8=
EXTT9=
EXTT10=
EXTT11=
EXTT12=
EXTT13=
EXTT14=
EXTT15=
EXTT16=
EXTT17=
EXTT18=
EXTT19=
PLAYORDER=
